<svg id="Layer_1" data-name="Layer 1" xmlns="http://www.w3.org/2000/svg" viewBox="0 0 808.75 208.5"><defs><style>.cls-1{fill:#f5f5f3;}.cls-2{fill:#f2f2f2;}.cls-3{fill:#0d0d0d;}</style></defs><title>primary logo</title><path class="cls-1" d="M129.51,592.09c0,6.6-5.1,10.93-14.3,10.93H95.64V566.08h18.81c8.73,0,13.65,3.5,13.65,9.82a8.39,8.39,0,0,1-4.16,7.49C127.4,584.83,129.51,587.66,129.51,592.09ZM106.77,574v6.22h5.92c2.81,0,4.22-1.06,4.22-3.05,0-2.22-1.52-3.17-4.22-3.17Zm11.31,17.53c0-2.22-1.58-3.33-4.68-3.33h-6.63v6.88h6.63C116.21,595.09,118.08,594.09,118.08,591.54Z" transform="translate(-95.64 -395.47)"/><path class="cls-1" d="M160.15,597H146.79l-2,6h-11l12.95-36.94h13.83L173.51,603H162.15Zm-2.75-8.21-3.34-9.93-.59-2.33-.64,2.38-3.28,9.88Z" transform="translate(-95.64 -395.47)"/><path class="cls-1" d="M217.22,584.38c0,11.71-8,18.64-21.09,18.64H180.66V566.08h15.82C209.43,566.08,217.22,572.63,217.22,584.38Zm-11.83.28c0-6.43-3.4-9.48-9.85-9.54l-3.75,0v18.8l3.87,0C202,593.92,205.39,591,205.39,584.66Z" transform="translate(-95.64 -395.47)"/><path class="cls-1" d="M276.17,582.28V603h-8.38l-.59-2.27c-2.81,2.22-6.51,3.21-10.9,3.21-10.08,0-17.46-6.6-17.46-19s7.79-19.8,19.34-19.8c10,0,16,4.71,17.46,13.09l-11,1.33c-.7-3.33-3.1-4.94-6.5-4.94-4.46,0-7.39,3.5-7.39,9.93,0,6.66,2.82,9.87,7.27,9.87,5.1,0,7-2.27,7.91-4.1h-7v-8Z" transform="translate(-95.64 -395.47)"/><path class="cls-1" d="M322.94,591.87h-4.39V603H307.41V566.08h17.93c9.85,0,15.42,4.66,15.42,12.87a11.48,11.48,0,0,1-6.92,11L341.63,603H329Zm-4.39-8.54H324c3.34,0,5.33-1.33,5.33-4.1s-1.94-4.05-5.33-4.05h-5.45Z" transform="translate(-95.64 -395.47)"/><path class="cls-1" d="M285.06,566.08h11.13V603H285.06Z" transform="translate(-95.64 -395.47)"/><path class="cls-1" d="M379.05,593.37V603H351.51V566.08h11.13v27.29Z" transform="translate(-95.64 -395.47)"/><path class="cls-1" d="M397.86,592.48,408.64,591c.64,3.05,2.75,4.22,6.44,4.22,3.52,0,5.28-.73,5.28-2.78s-1.47-2.6-8.79-3.77-13.07-3.44-13.07-11.37c0-7.76,6.27-12.2,16.11-12.2,9.32,0,14.54,3.49,15.83,10.93l-10.79,1.44c-.52-2.78-2.63-3.61-5.56-3.61s-4.34,1-4.34,2.5c0,1.72,1.23,2.38,8.67,3.66,8.91,1.5,13.07,4.66,13.07,11.7,0,8.21-6.21,12.2-17.05,12.2C404.36,604,398.91,600.53,397.86,592.48Z" transform="translate(-95.64 -395.47)"/><path class="cls-1" d="M469.46,576.07H458.74V603h-11V576.07h-11v-10h32.76Z" transform="translate(-95.64 -395.47)"/><path class="cls-1" d="M493.24,591.87h-4.39V603H477.72V566.08h17.93c9.84,0,15.41,4.66,15.41,12.87a11.48,11.48,0,0,1-6.92,11l7.8,13.09H499.28Zm-4.39-8.54h5.45c3.34,0,5.33-1.33,5.33-4.1s-1.93-4.05-5.33-4.05h-5.45Z" transform="translate(-95.64 -395.47)"/><path class="cls-1" d="M549.08,594.31V603H520.66V566.08H548.5v8.65H531.8v5h15.35v8.65H531.8v5.93Z" transform="translate(-95.64 -395.47)"/><path class="cls-1" d="M593.26,566.08V603H582.13l-13-20.46.29,7.2V603H558.69V566.08h11.72l12.31,19.41-.24-6.65V566.08Z" transform="translate(-95.64 -395.47)"/><path class="cls-1" d="M639.9,582.28V603h-8.38l-.58-2.27C628.12,603,624.43,604,620,604c-10.08,0-17.46-6.6-17.46-19s7.79-19.8,19.33-19.8c10,0,16,4.71,17.46,13.09l-11,1.33c-.7-3.33-3.11-4.94-6.51-4.94-4.45,0-7.38,3.5-7.38,9.93,0,6.66,2.81,9.87,7.27,9.87,5.09,0,7-2.27,7.91-4.1h-7v-8Z" transform="translate(-95.64 -395.47)"/><path class="cls-1" d="M678.63,576.07H667.91V603h-11V576.07h-11v-10h32.76Z" transform="translate(-95.64 -395.47)"/><path class="cls-1" d="M722.34,566.08V603H711.21V589.49H698V603H686.89V566.08H698V579.5h13.19V566.08Z" transform="translate(-95.64 -395.47)"/><path class="cls-1" d="M746.07,584.77c0-12.09,8-19.63,18.92-19.63,9.55,0,16.06,4.1,17.23,13.48L771.67,580c-.76-3.83-3.1-5.33-6.5-5.33-4.1,0-7.21,3.39-7.21,9.88,0,6.82,2.93,9.92,7.21,9.92,3.46,0,5.86-1.44,6.8-5.49l10.49,1.33c-1.18,9.32-8.33,13.7-17.88,13.7C753.92,604,746.07,597.36,746.07,584.77Z" transform="translate(-95.64 -395.47)"/><path class="cls-1" d="M818.49,593.37V603H791V566.08h11.13v27.29Z" transform="translate(-95.64 -395.47)"/><path class="cls-1" d="M859.74,566.08v22.24c0,9.76-6.8,15.64-17.58,15.64s-17.23-5.65-17.23-15.53V566.08h11v21.13c0,4.83,2.52,6.88,6.62,6.88,3.81,0,6.33-2,6.33-6.82l-.18-21.19Z" transform="translate(-95.64 -395.47)"/><path class="cls-1" d="M904.39,592.09c0,6.6-5.1,10.93-14.3,10.93H870.51V566.08h18.82c8.73,0,13.65,3.5,13.65,9.82a8.41,8.41,0,0,1-4.16,7.49C902.28,584.83,904.39,587.66,904.39,592.09ZM881.65,574v6.22h5.92c2.81,0,4.22-1.06,4.22-3.05,0-2.22-1.53-3.17-4.22-3.17ZM893,591.54c0-2.22-1.58-3.33-4.69-3.33h-6.62v6.88h6.62C891.08,595.09,893,594.09,893,591.54Z" transform="translate(-95.64 -395.47)"/><path class="cls-2" d="M263.91,471.45v-.63c13.12-3.81,22.65-8.89,22.65-35.13,0-30.07-18.21-40.22-55.67-40.22H95.64V548.71H245.29c26.88,0,46.78-7,46.78-40.63C292.07,485,284.44,474,263.91,471.45ZM142.62,432.3h83.2c8.67,0,13.75,3.18,13.75,12.07,0,8.67-5.08,11.84-13.75,11.84h-83.2Zm84.25,79.58H142.62V488h84.25c10.15,0,16.93,2.33,16.93,12.69C243.8,509.55,237,511.88,226.87,511.88Z" transform="translate(-95.64 -395.47)"/><path class="cls-2" d="M443.05,430.47H354.13a7.26,7.26,0,0,0-7.27,7.26V505a8.57,8.57,0,0,0,8.57,8.57h86.95a7.75,7.75,0,0,0,7.75-7.75V498h44.94v19.79a30.48,30.48,0,0,1-24,29.84c-11.67,2.51-27,2.8-46.33,2.8H337.21A36.47,36.47,0,0,1,300.74,514v-83.7c0-.5,0-1,0-1.51.76-18.62,16.56-33.12,35.2-33.12H457.29a52.78,52.78,0,0,1,18.25,3.11l.41.14a30.33,30.33,0,0,1,19.53,28.43v16.92H450v-6.81A7,7,0,0,0,443.05,430.47Z" transform="translate(-95.64 -395.47)"/><path class="cls-2" d="M698.31,483.81v35a27.58,27.58,0,0,1-17,25.67c-5.3,2.14-11.88,3.56-20,4.48H537.11a31,31,0,0,1-30.95-31V500.24h45.25v8.2A5.56,5.56,0,0,0,557,514H643a10.19,10.19,0,0,0,10.2-10.2v-5.41a10.2,10.2,0,0,0-10.2-10.2q-.4,0-.84,0H398.81V456.41h272.1A27.4,27.4,0,0,1,698.31,483.81Z" transform="translate(-95.64 -395.47)"/><line class="cls-2" x1="547.39" y1="92.73" x2="547.14" y2="92.73"/><path class="cls-2" d="M697.08,426.1v15h-43.9v-1.45a10.32,10.32,0,0,0-10.32-10.32H560.37a10.32,10.32,0,0,0-10.32,10.32v6.25H506.16V426.1a30.48,30.48,0,0,1,30.48-30.48h130A30.48,30.48,0,0,1,697.08,426.1Z" transform="translate(-95.64 -395.47)"/><path class="cls-3" d="M450.13,513.58" transform="translate(-95.64 -395.47)"/><path class="cls-2" d="M860.39,447.57V437.48a6.84,6.84,0,0,0-6.84-6.84H762.61a6.84,6.84,0,0,0-6.84,6.84v69.6a6.84,6.84,0,0,0,6.84,6.84h90.94a6.84,6.84,0,0,0,6.84-6.84v-11h44v21.36a31.5,31.5,0,0,1-31.5,31.5H743.28a31.5,31.5,0,0,1-31.5-31.5V427.12a31.5,31.5,0,0,1,31.5-31.5H872.89a31.5,31.5,0,0,1,31.5,31.5v20.45Z" transform="translate(-95.64 -395.47)"/></svg>