<svg width="197" height="154" viewBox="0 0 197 154" fill="none" xmlns="http://www.w3.org/2000/svg">

  <!-- White Background -->
  <rect width="197" height="154" fill="#ffffff"/>

  <!-- Logo -->
  <path d="M168.27 75.98V75.35C181.39 71.54 190.92 66.46 190.92 40.22C190.92 10.15 172.71 0 135.25 0H0V153.24H149.65C176.53 153.24 196.43 146.24 196.43 112.61C196.43 89.53 188.8 78.53 168.27 75.98ZM46.98 36.83H130.18C138.85 36.83 143.93 40.01 143.93 48.9C143.93 57.57 138.85 60.74 130.18 60.74H46.98V36.83ZM131.23 116.41H46.98V92.53H131.23C141.38 92.53 148.16 94.86 148.16 105.22C148.16 114.08 141.36 116.41 131.23 116.41Z" fill="#8F0000"/>

</svg>